<svg xmlns="http://www.w3.org/2000/svg" width="1866" height="1862" viewBox="0 0 1866 1862" version="1.1"><path d="" stroke="none" fill="#0864fc" fill-rule="evenodd"/><path d="M 384.615 1.603 C 299.648 10.016, 219.323 43.724, 153 98.800 C 137.556 111.625, 110.729 138.574, 97.712 154.341 C 75.910 180.748, 58.798 207.309, 43.491 238.500 C 21.543 283.223, 9.649 323.205, 2.287 377 C 0.691 388.667, 0.557 431.897, 0.279 1025.396 L -0.019 1661.291 14.741 1660.707 C 77.903 1658.209, 139.529 1629.789, 185.253 1582.072 C 221.499 1544.246, 244.420 1497.662, 253.681 1443 C 255.365 1433.065, 255.489 1406.252, 256.001 944.500 C 256.514 481.988, 256.635 455.952, 258.328 446 C 266.685 396.873, 286.039 357.745, 318.719 323.909 C 352.633 288.795, 393.602 267.545, 445.241 258.284 C 453.756 256.758, 493.819 256.577, 943.500 256.036 C 1410.935 255.474, 1432.985 255.368, 1443.500 253.620 C 1458.394 251.145, 1482.469 244.966, 1494.565 240.515 C 1527.546 228.377, 1560.867 207.133, 1585.536 182.515 C 1631.114 137.030, 1659.310 72.655, 1661.206 9.749 L 1661.500 -0.002 1030 0.113 C 502.261 0.209, 396.218 0.454, 384.615 1.603 M 1830.258 202.576 C 1761.932 210.854, 1698.032 248.281, 1656.242 304.500 C 1631.267 338.099, 1615.756 375.826, 1608.265 421.196 C 1606.685 430.765, 1606.524 466.327, 1606.012 919.500 C 1605.487 1384.183, 1605.374 1408.001, 1603.653 1417.981 C 1593.546 1476.602, 1563.550 1526.670, 1518.052 1560.865 C 1488.323 1583.209, 1458.291 1596.130, 1419.500 1603.266 L 1407.500 1605.474 918.500 1606.049 C 467.533 1606.579, 428.761 1606.754, 420 1608.296 C 393.528 1612.954, 374.384 1618.428, 354.020 1627.161 C 292 1653.760, 242.214 1706.278, 217.392 1771.287 C 207.766 1796.498, 201 1830.534, 201 1853.744 L 201 1862 830.839 1862 C 1380.918 1862, 1462.630 1861.812, 1476.089 1860.512 C 1565.298 1851.897, 1646.707 1817.114, 1714.700 1758.562 C 1729.677 1745.665, 1755.553 1718.943, 1767.536 1704 C 1800.275 1663.172, 1823.969 1620.111, 1840.166 1572 C 1853.121 1533.519, 1859.843 1497.548, 1861.973 1455.313 C 1862.616 1442.568, 1862.977 1215.301, 1862.986 818.250 L 1863 201 1852.250 201.107 C 1846.338 201.166, 1836.441 201.827, 1830.258 202.576" stroke="none" fill="#0464fc" fill-rule="evenodd"/></svg>